<svg width="146" height="40" viewBox="0 0 146 40" fill="none" xmlns="http://www.w3.org/2000/svg">
<path d="M48.561 15.4867V17.3604H54.8058V20.7434H48.561V26.2397H44.658V11.9072H55.2379V15.4915H48.561V15.4867Z" fill="white"/>
<path d="M68.1784 26.2348H64.1592C63.9826 25.8514 63.9036 25.4106 63.885 24.7876L63.8246 23.1584C63.7642 21.5292 63.0254 21.2848 61.9335 21.2848H59.903V26.2348H56V11.9023H62.8303C66.6172 11.9023 68.0018 13.9149 68.0018 16.1479C68.0018 17.5376 67.3188 18.8266 65.8365 19.5118C67.4582 20.1347 67.6905 21.3423 67.7509 22.8709L67.8299 24.7828C67.8485 25.3866 67.9832 25.8898 68.1784 26.2348ZM62.2448 18.3426C63.3972 18.3426 63.9826 17.7388 63.9826 16.6942C63.9826 15.6687 63.3972 15.041 62.2448 15.041H59.903V18.3426H62.2448Z" fill="white"/>
<path d="M73.006 15.4866V17.3794H79.446V20.7193H73.006V22.6505H80.0733V26.2348H69.103V11.9023H80.0733V15.4866H73.006Z" fill="white"/>
<path d="M94.7698 11.9023L89.6773 20.7193V26.2348H85.7743V20.7193L80.6028 11.9023H84.9937L85.8904 13.5124C86.5363 14.6816 87.1775 15.846 87.8048 17.0152C88.3902 15.8269 89.0361 14.6002 89.6401 13.4932L90.4997 11.9023H94.7698Z" fill="white"/>
<path d="M93.8591 21.5242H97.6088C97.646 23.2157 98.7193 23.4984 100.225 23.4984C101.554 23.4984 102.176 23.0144 102.176 22.2094C102.176 21.3852 101.688 21.1025 99.9878 20.8197L98.8959 20.6377C95.7549 20.1153 94.0729 18.6059 94.0729 16.0087C94.0729 13.5313 95.871 11.5811 99.7741 11.5811C103.445 11.5811 105.55 13.172 105.708 16.3106H102.037C101.976 15.1845 101.354 14.6383 99.8298 14.6383C98.5985 14.6383 98.0549 15.0791 98.0549 15.8266C98.0549 16.694 98.7007 16.9958 100.085 17.2354L101.238 17.4367C104.634 18.0213 106.195 19.3486 106.195 21.9075C106.195 25.1085 103.696 26.5556 100.067 26.5556C95.871 26.5556 93.8591 24.4616 93.8591 21.5242Z" fill="white"/>
<path d="M106.298 19.0658C106.298 14.4944 109.267 11.5762 113.597 11.5762C117.909 11.5762 120.897 14.4944 120.897 19.0658C120.897 23.6373 117.909 26.5555 113.597 26.5555C109.267 26.5555 106.298 23.6373 106.298 19.0658ZM116.836 19.0658C116.836 16.5309 115.549 15.0598 113.597 15.0598C111.646 15.0598 110.359 16.5309 110.359 19.0658C110.359 21.6199 111.646 23.0718 113.597 23.0718C115.549 23.0718 116.836 21.6247 116.836 19.0658Z" fill="white"/>
<path d="M125.706 15.4867V17.3604H131.951V20.7434H125.706V26.2397H121.803V11.9072H132.383V15.4915H125.706V15.4867Z" fill="white"/>
<path d="M145.003 15.4866H140.905V26.2348H137.001V15.4866H132.903V11.9023H145.003V15.4866Z" fill="white"/>
<path d="M0.00268555 18.97L18.7924 0.107071L37.5821 18.97L18.7924 37.8329L0.00268555 18.97Z" fill="#18E8A4"/>
<path d="M32.3601 18.908L29.7869 16.3157L20.6836 25.4912V20.3111L27.2182 13.728L24.6496 11.1402L20.6836 15.1356V7.9021H17.0497V15.1356L13.0838 11.1402L10.5105 13.728L17.0497 20.3111V40.0001H20.6836V30.6713L32.3601 18.908Z" fill="#020213"/>
</svg>
