<svg width="146" height="40" fill="none" xmlns="http://www.w3.org/2000/svg"><path d="M48.561 15.487v1.873h6.245v3.383H48.56v5.497h-3.903V11.907h10.58v3.585H48.56v-.005zm19.617 10.748H64.16c-.176-.384-.255-.824-.274-1.447l-.06-1.63c-.06-1.629-.8-1.873-1.892-1.873h-2.03v4.95H56V11.902h6.83c3.787 0 5.172 2.013 5.172 4.246 0 1.39-.683 2.679-2.165 3.364 1.621.623 1.853 1.83 1.914 3.359l.079 1.912c.019.604.153 1.107.348 1.452zm-5.933-7.892c1.152 0 1.738-.604 1.738-1.649 0-1.025-.586-1.653-1.738-1.653h-2.342v3.302h2.342zm10.761-2.856v1.892h6.44v3.34h-6.44v1.931h7.067v3.585h-10.97V11.902h10.97v3.585h-7.067zm21.764-3.585l-5.093 8.817v5.516h-3.903v-5.516l-5.171-8.817h4.39l.897 1.61c.646 1.17 1.287 2.334 1.915 3.503a97.242 97.242 0 011.835-3.522l.86-1.59h4.27zm-.91 9.622h3.749c.037 1.692 1.11 1.974 2.616 1.974 1.329 0 1.951-.484 1.951-1.289 0-.824-.488-1.107-2.188-1.39l-1.092-.181c-3.141-.523-4.823-2.032-4.823-4.63 0-2.477 1.798-4.427 5.701-4.427 3.671 0 5.776 1.591 5.934 4.73h-3.671c-.061-1.127-.683-1.673-2.207-1.673-1.231 0-1.775.441-1.775 1.189 0 .867.646 1.169 2.03 1.408l1.153.202c3.396.584 4.957 1.912 4.957 4.47 0 3.201-2.499 4.649-6.128 4.649-4.196 0-6.208-2.094-6.208-5.032zm12.438-2.458c0-4.572 2.969-7.49 7.299-7.49 4.312 0 7.3 2.918 7.3 7.49 0 4.571-2.988 7.49-7.3 7.49-4.33 0-7.299-2.919-7.299-7.49zm10.538 0c0-2.535-1.287-4.006-3.239-4.006-1.951 0-3.238 1.47-3.238 4.006 0 2.554 1.287 4.006 3.238 4.006 1.952 0 3.239-1.447 3.239-4.006zm8.87-3.579v1.873h6.245v3.383h-6.245v5.497h-3.903V11.907h10.58v3.585h-6.677v-.005zm19.297 0h-4.098v10.748h-3.904V15.487h-4.098v-3.585h12.1v3.585z" fill="#fff"/><path d="M.003 18.97L18.793.107l18.79 18.863-18.79 18.863L.002 18.97z" fill="#18E8A4"/><path d="M32.36 18.908l-2.573-2.592-9.103 9.175v-5.18l6.534-6.583-2.568-2.588-3.966 3.996V7.902H17.05v7.234l-3.966-3.996-2.573 2.588 6.539 6.583v19.69h3.634v-9.33L32.36 18.908z" fill="#020213"/></svg>